<mxfile host="app.diagrams.net" agent="Mozilla/5.0 (Windows NT 10.0; Win64; x64) AppleWebKit/537.36 (KHTML, like Gecko) Chrome/134.0.0.0 Safari/537.36" version="26.1.3">
  <diagram name="Página-1" id="8K3thalKERz9PwRj6b82">
    <mxGraphModel dx="1937" dy="1054" grid="1" gridSize="10" guides="1" tooltips="1" connect="1" arrows="1" fold="1" page="1" pageScale="1" pageWidth="827" pageHeight="1169" background="none" math="0" shadow="0">
      <root>
        <mxCell id="0" />
        <mxCell id="1" parent="0" />
        <mxCell id="g58u9Pg7qBv3hDsWQ4d1-50" style="edgeStyle=orthogonalEdgeStyle;rounded=0;orthogonalLoop=1;jettySize=auto;html=1;" edge="1" parent="1" source="g58u9Pg7qBv3hDsWQ4d1-10">
          <mxGeometry relative="1" as="geometry">
            <mxPoint x="369" y="470" as="targetPoint" />
          </mxGeometry>
        </mxCell>
        <mxCell id="g58u9Pg7qBv3hDsWQ4d1-10" value="" style="html=1;verticalLabelPosition=bottom;align=center;labelBackgroundColor=#ffffff;verticalAlign=top;strokeWidth=2;strokeColor=#0080F0;shadow=0;dashed=0;shape=mxgraph.ios7.icons.cloud;" vertex="1" parent="1">
          <mxGeometry x="469" y="420" width="223.08" height="100" as="geometry" />
        </mxCell>
        <mxCell id="g58u9Pg7qBv3hDsWQ4d1-37" value="" style="group" vertex="1" connectable="0" parent="1">
          <mxGeometry x="230" y="80" width="330" height="300" as="geometry" />
        </mxCell>
        <mxCell id="g58u9Pg7qBv3hDsWQ4d1-14" style="edgeStyle=orthogonalEdgeStyle;rounded=0;orthogonalLoop=1;jettySize=auto;html=1;" edge="1" parent="g58u9Pg7qBv3hDsWQ4d1-37" source="g58u9Pg7qBv3hDsWQ4d1-11">
          <mxGeometry relative="1" as="geometry">
            <mxPoint x="98.48341232227489" y="114.84875739644971" as="targetPoint" />
          </mxGeometry>
        </mxCell>
        <mxCell id="g58u9Pg7qBv3hDsWQ4d1-16" style="edgeStyle=orthogonalEdgeStyle;rounded=0;orthogonalLoop=1;jettySize=auto;html=1;" edge="1" parent="g58u9Pg7qBv3hDsWQ4d1-37" source="g58u9Pg7qBv3hDsWQ4d1-11">
          <mxGeometry relative="1" as="geometry">
            <mxPoint x="333.0805687203791" y="114.84875739644971" as="targetPoint" />
          </mxGeometry>
        </mxCell>
        <mxCell id="g58u9Pg7qBv3hDsWQ4d1-23" style="edgeStyle=orthogonalEdgeStyle;rounded=0;orthogonalLoop=1;jettySize=auto;html=1;" edge="1" parent="g58u9Pg7qBv3hDsWQ4d1-37" source="g58u9Pg7qBv3hDsWQ4d1-11">
          <mxGeometry relative="1" as="geometry">
            <mxPoint x="214.218009478673" y="102.99266272189351" as="targetPoint" />
          </mxGeometry>
        </mxCell>
        <mxCell id="g58u9Pg7qBv3hDsWQ4d1-11" value="Sensor" style="sketch=0;outlineConnect=0;strokeColor=#10739e;fillColor=#b1ddf0;dashed=0;verticalLabelPosition=middle;verticalAlign=bottom;align=center;html=1;whiteSpace=wrap;fontSize=10;fontStyle=1;spacing=3;shape=mxgraph.aws4.productIcon;prIcon=mxgraph.aws4.deeplens;" vertex="1" parent="g58u9Pg7qBv3hDsWQ4d1-37">
          <mxGeometry x="182.94" y="120.78" width="62.56" height="59.22" as="geometry" />
        </mxCell>
        <mxCell id="g58u9Pg7qBv3hDsWQ4d1-15" value="" style="sketch=0;outlineConnect=0;dashed=0;verticalLabelPosition=bottom;verticalAlign=top;align=center;html=1;fontSize=12;fontStyle=0;aspect=fixed;pointerEvents=1;shape=mxgraph.aws4.iot_thing_humidity_sensor;fillColor=#008a00;strokeColor=#005700;fontColor=#ffffff;" vertex="1" parent="g58u9Pg7qBv3hDsWQ4d1-37">
          <mxGeometry x="67.20379146919431" y="61.496331360946755" width="46.238769230769236" height="46.238769230769236" as="geometry" />
        </mxCell>
        <mxCell id="g58u9Pg7qBv3hDsWQ4d1-17" value="" style="sketch=0;outlineConnect=0;dashed=0;verticalLabelPosition=bottom;verticalAlign=top;align=center;html=1;fontSize=12;fontStyle=0;aspect=fixed;pointerEvents=1;shape=mxgraph.aws4.iot_thing_temperature_humidity_sensor;fillColor=#008a00;strokeColor=#005700;fontColor=#ffffff;" vertex="1" parent="g58u9Pg7qBv3hDsWQ4d1-37">
          <mxGeometry x="301.8009478672986" y="62.08913609467456" width="46.238769230769236" height="46.238769230769236" as="geometry" />
        </mxCell>
        <mxCell id="g58u9Pg7qBv3hDsWQ4d1-18" value="" style="sketch=0;outlineConnect=0;dashed=0;verticalLabelPosition=bottom;verticalAlign=top;align=center;html=1;fontSize=12;fontStyle=0;aspect=fixed;pointerEvents=1;shape=mxgraph.aws4.iot_thing_vibration_sensor;fillColor=#008a00;strokeColor=#005700;fontColor=#ffffff;" vertex="1" parent="g58u9Pg7qBv3hDsWQ4d1-37">
          <mxGeometry x="184.50236966824647" y="49.64023668639054" width="46.238769230769236" height="46.238769230769236" as="geometry" />
        </mxCell>
        <mxCell id="g58u9Pg7qBv3hDsWQ4d1-24" value="&lt;font style=&quot;font-size: 12px;&quot;&gt;Sensor de umidade&lt;/font&gt;" style="text;strokeColor=none;fillColor=none;html=1;fontSize=24;fontStyle=1;verticalAlign=middle;align=center;" vertex="1" parent="g58u9Pg7qBv3hDsWQ4d1-37">
          <mxGeometry x="50" y="31.856094674556214" width="78.19905213270142" height="23.71218934911243" as="geometry" />
        </mxCell>
        <mxCell id="g58u9Pg7qBv3hDsWQ4d1-28" value="&lt;font style=&quot;font-size: 12px;&quot;&gt;Sensor de vibração&lt;/font&gt;" style="text;strokeColor=none;fillColor=none;html=1;fontSize=24;fontStyle=1;verticalAlign=middle;align=center;" vertex="1" parent="g58u9Pg7qBv3hDsWQ4d1-37">
          <mxGeometry x="182.9383886255924" y="20" width="78.19905213270142" height="23.71218934911243" as="geometry" />
        </mxCell>
        <mxCell id="g58u9Pg7qBv3hDsWQ4d1-29" value="&lt;font style=&quot;font-size: 12px;&quot;&gt;Sensor de temperatura&lt;/font&gt;" style="text;strokeColor=none;fillColor=none;html=1;fontSize=24;fontStyle=1;verticalAlign=middle;align=center;" vertex="1" parent="g58u9Pg7qBv3hDsWQ4d1-37">
          <mxGeometry x="301.8009478672986" y="31.856094674556214" width="78.19905213270142" height="23.71218934911243" as="geometry" />
        </mxCell>
        <mxCell id="g58u9Pg7qBv3hDsWQ4d1-48" value="" style="html=1;shadow=0;dashed=0;align=center;verticalAlign=middle;shape=mxgraph.arrows2.arrow;dy=0.6;dx=40;direction=south;notch=0;" vertex="1" parent="g58u9Pg7qBv3hDsWQ4d1-37">
          <mxGeometry x="195.69" y="210" width="37.06" height="100" as="geometry" />
        </mxCell>
        <mxCell id="g58u9Pg7qBv3hDsWQ4d1-47" value="Azure" style="text;strokeColor=none;fillColor=none;html=1;fontSize=24;fontStyle=1;verticalAlign=middle;align=center;" vertex="1" parent="1">
          <mxGeometry x="530.54" y="460" width="100" height="40" as="geometry" />
        </mxCell>
        <mxCell id="g58u9Pg7qBv3hDsWQ4d1-52" style="edgeStyle=orthogonalEdgeStyle;rounded=0;orthogonalLoop=1;jettySize=auto;html=1;" edge="1" parent="1" source="g58u9Pg7qBv3hDsWQ4d1-49">
          <mxGeometry relative="1" as="geometry">
            <mxPoint x="319" y="550" as="targetPoint" />
          </mxGeometry>
        </mxCell>
        <mxCell id="g58u9Pg7qBv3hDsWQ4d1-53" style="edgeStyle=orthogonalEdgeStyle;rounded=0;orthogonalLoop=1;jettySize=auto;html=1;" edge="1" parent="1" source="g58u9Pg7qBv3hDsWQ4d1-49">
          <mxGeometry relative="1" as="geometry">
            <mxPoint x="230" y="470" as="targetPoint" />
          </mxGeometry>
        </mxCell>
        <mxCell id="g58u9Pg7qBv3hDsWQ4d1-49" value="InfluxDB" style="shape=cylinder3;whiteSpace=wrap;html=1;boundedLbl=1;backgroundOutline=1;size=15;" vertex="1" parent="1">
          <mxGeometry x="289" y="430" width="60" height="80" as="geometry" />
        </mxCell>
        <mxCell id="g58u9Pg7qBv3hDsWQ4d1-58" style="edgeStyle=orthogonalEdgeStyle;rounded=0;orthogonalLoop=1;jettySize=auto;html=1;" edge="1" parent="1" source="g58u9Pg7qBv3hDsWQ4d1-51" target="g58u9Pg7qBv3hDsWQ4d1-59">
          <mxGeometry relative="1" as="geometry">
            <mxPoint x="410" y="640" as="targetPoint" />
            <Array as="points">
              <mxPoint x="411" y="594" />
              <mxPoint x="411" y="640" />
            </Array>
          </mxGeometry>
        </mxCell>
        <mxCell id="g58u9Pg7qBv3hDsWQ4d1-51" value="" style="points=[];aspect=fixed;html=1;align=center;shadow=0;dashed=0;fillColor=#FF6A00;strokeColor=none;shape=mxgraph.alibaba_cloud.multimediaai;" vertex="1" parent="1">
          <mxGeometry x="289" y="564" width="60" height="59.1" as="geometry" />
        </mxCell>
        <mxCell id="g58u9Pg7qBv3hDsWQ4d1-55" style="edgeStyle=orthogonalEdgeStyle;rounded=0;orthogonalLoop=1;jettySize=auto;html=1;" edge="1" parent="1" source="g58u9Pg7qBv3hDsWQ4d1-54">
          <mxGeometry relative="1" as="geometry">
            <mxPoint x="130" y="580" as="targetPoint" />
          </mxGeometry>
        </mxCell>
        <mxCell id="g58u9Pg7qBv3hDsWQ4d1-54" value="Power BI" style="image;aspect=fixed;html=1;points=[];align=center;fontSize=12;image=img/lib/azure2/power_platform/PowerBI.svg;" vertex="1" parent="1">
          <mxGeometry x="160" y="430" width="51" height="68" as="geometry" />
        </mxCell>
        <mxCell id="g58u9Pg7qBv3hDsWQ4d1-56" value="" style="image;html=1;image=img/lib/clip_art/computers/Netbook_128x128.png" vertex="1" parent="1">
          <mxGeometry x="60" y="585" width="80" height="80" as="geometry" />
        </mxCell>
        <mxCell id="g58u9Pg7qBv3hDsWQ4d1-57" value="" style="verticalLabelPosition=bottom;html=1;verticalAlign=top;align=center;strokeColor=none;fillColor=#00BEF2;shape=mxgraph.azure.mobile;pointerEvents=1;" vertex="1" parent="1">
          <mxGeometry x="150" y="600" width="35" height="50" as="geometry" />
        </mxCell>
        <mxCell id="g58u9Pg7qBv3hDsWQ4d1-63" style="edgeStyle=orthogonalEdgeStyle;rounded=0;orthogonalLoop=1;jettySize=auto;html=1;" edge="1" parent="1" source="g58u9Pg7qBv3hDsWQ4d1-59">
          <mxGeometry relative="1" as="geometry">
            <mxPoint x="510" y="670" as="targetPoint" />
          </mxGeometry>
        </mxCell>
        <mxCell id="g58u9Pg7qBv3hDsWQ4d1-64" style="edgeStyle=orthogonalEdgeStyle;rounded=0;orthogonalLoop=1;jettySize=auto;html=1;" edge="1" parent="1" source="g58u9Pg7qBv3hDsWQ4d1-59">
          <mxGeometry relative="1" as="geometry">
            <mxPoint x="455" y="690" as="targetPoint" />
          </mxGeometry>
        </mxCell>
        <mxCell id="g58u9Pg7qBv3hDsWQ4d1-59" value="" style="verticalLabelPosition=bottom;html=1;verticalAlign=top;align=center;strokeColor=none;fillColor=#00BEF2;shape=mxgraph.azure.azure_alert;" vertex="1" parent="1">
          <mxGeometry x="430" y="622.5" width="50" height="42.5" as="geometry" />
        </mxCell>
        <mxCell id="g58u9Pg7qBv3hDsWQ4d1-60" value="" style="html=1;verticalLabelPosition=bottom;align=center;labelBackgroundColor=#ffffff;verticalAlign=top;strokeWidth=2;strokeColor=#0080F0;shadow=0;dashed=0;shape=mxgraph.ios7.icons.mail;" vertex="1" parent="1">
          <mxGeometry x="430" y="696.5" width="30" height="16.5" as="geometry" />
        </mxCell>
        <mxCell id="g58u9Pg7qBv3hDsWQ4d1-61" value="" style="verticalLabelPosition=bottom;html=1;verticalAlign=top;align=center;strokeColor=none;fillColor=#00BEF2;shape=mxgraph.azure.mobile;pointerEvents=1;" vertex="1" parent="1">
          <mxGeometry x="490" y="679.75" width="35" height="50" as="geometry" />
        </mxCell>
        <mxCell id="g58u9Pg7qBv3hDsWQ4d1-65" value="Notificações&lt;div&gt;&lt;br&gt;&lt;/div&gt;" style="text;html=1;align=center;verticalAlign=middle;resizable=0;points=[];autosize=1;strokeColor=none;fillColor=none;" vertex="1" parent="1">
          <mxGeometry x="425" y="585" width="90" height="40" as="geometry" />
        </mxCell>
      </root>
    </mxGraphModel>
  </diagram>
</mxfile>
